<svg viewBox="0 0 896 504" height="504" width="896" xmlns="http://www.w3.org/2000/svg" version="1.1"><g transform-origin="center" transform="scale(1, 1) rotate(0)"><rect x="0" y="0" width="896" height="504" fill="#ffffff00"></rect><linearGradient id="linear-gradient-r8"><stop offset="0%" stop-color="#ff0005ff" stop-opacity="100%"></stop><stop offset="100%" stop-color="#ff0092ff" stop-opacity="100%"></stop></linearGradient><path d="M0 168.43978918125856 0,168.43978918125856 C 13.784615384615384,168.2937135247663 41.35384615384615,165.73677410592515 68.92307692307692,167.70941089879724 C 96.49230769230769,169.68204769166934 110.27692307692305,178.6201598532424 137.84615384615384,178.3029731456191 C 165.41538461538462,177.98578643799578 179.2,170.26789528775592 206.76923076923077,166.12347736068074 C 234.33846153846156,161.97905943360556 248.12307692307692,164.64366227353742 275.6923076923077,157.58088351024318 C 303.26153846153846,150.51810474694895 317.0461538461538,134.6577897571698 344.6153846153846,130.80958354420963 C 372.18461538461537,126.96137733124945 385.96923076923076,136.39180874337632 413.53846153846155,138.33985244544226 C 441.10769230769233,140.2878961475082 454.89230769230767,136.94902375001465 482.46153846153845,140.54980205453936 C 510.03076923076924,144.15058035906407 523.8153846153846,153.08501368025694 551.3846153846154,156.34374396806587 C 578.9538461538461,159.6024742558748 592.7384615384615,159.07082237168405 620.3076923076923,156.84345349358398 C 647.876923076923,154.6160846154839 661.6615384615384,144.63677356051286 689.2307692307692,145.20689957756554 C 716.8,145.7770255946182 730.5846153846153,158.0295314724148 758.1538461538461,159.6940835788474 C 785.7230769230769,161.35863568528 799.5076923076923,156.95113511795554 827.0769230769231,153.5296601097286 C 854.6461538461539,150.10818510150168 882.2153846153847,144.7752988521159 896,142.58670853771272" fill="none" stroke-linecap="round" stroke-width="1.5" style="transition: all 0.4s cubic-bezier(0.16, 1, 0.3, 1) 0s;" stroke="url(#linear-gradient-r8)"></path><path d="M0 275.05030369116616 0,275.05030369116616 C 13.784615384615384,278.5250788961401 41.35384615384615,292.94437890933705 68.92307692307692,292.4241797160357 C 96.49230769230769,291.9039805227344 110.27692307692307,279.2463228912863 137.84615384615384,272.44930772465966 C 165.41538461538462,265.652292558033 179.20000000000002,270.0223503646391 206.76923076923077,258.4391038829026 C 234.33846153846153,246.8558574011661 248.12307692307692,220.84429113784682 275.6923076923077,214.53307531597716 C 303.26153846153846,208.2218594941075 317.0461538461538,223.68815330518908 344.6153846153846,226.88302477355427 C 372.18461538461537,230.07789624191946 385.96923076923076,224.6020087410634 413.53846153846155,230.50743265780312 C 441.10769230769233,236.41285657454284 454.89230769230767,251.06569319911054 482.46153846153845,256.4101443572529 C 510.03076923076924,261.75459551539524 523.8153846153846,260.8826646474675 551.3846153846154,257.2296884485148 C 578.9538461538461,253.57671224956218 592.7384615384615,237.21023334066697 620.3076923076923,238.14526336248966 C 647.876923076923,239.08029338431234 661.6615384615384,259.17490491866073 689.2307692307692,261.9048385576283 C 716.8,264.63477219659586 730.5846153846153,257.4062907234058 758.1538461538461,251.79493155732752 C 785.7230769230769,246.18357239124924 799.5076923076923,230.71444851161291 827.0769230769231,233.84804272723696 C 854.6461538461539,236.981636942861 882.2153846153847,260.7399306538055 896,267.4629026354477" fill="none" stroke-linecap="round" stroke-width="1.5" style="transition: all 0.4s cubic-bezier(0.16, 1, 0.3, 1) 0s;" stroke="url(#linear-gradient-r8)"></path><path d="M0 406.5453862864524 0,406.5453862864524 C 13.784615384615384,400.99133664688964 41.35384615384615,388.22475049481665 68.92307692307692,378.7751380886386 C 96.49230769230769,369.3255256824605 110.27692307692307,375.4010384557409 137.84615384615384,359.2973242555621 C 165.41538461538462,343.1936100553833 179.20000000000002,307.0307925185238 206.76923076923077,298.25656708774466 C 234.33846153846153,289.4823416569655 248.12307692307692,310.98449786700183 275.6923076923077,315.4261971016663 C 303.26153846153846,319.8678963363307 317.0461538461538,312.25499373211215 344.6153846153846,320.46506326106686 C 372.18461538461537,328.67513279002156 385.96923076923076,349.0463727179642 413.53846153846155,356.4765447464399 C 441.10769230769233,363.90671677491565 454.89230769230767,362.6945069232509 482.46153846153845,357.61592340344566 C 510.03076923076924,352.5373398836404 523.8153846153846,329.78369312082106 551.3846153846154,331.0836271474138 C 578.9538461538461,332.3835611740065 592.7384615384615,360.3202783649067 620.3076923076923,364.1155935364092 C 647.876923076923,367.91090870791174 661.6615384615384,357.86144632885606 689.2307692307692,350.06020300492645 C 716.8,342.25895968099684 730.5846153846153,320.75286894230794 758.1538461538461,325.1093769167612 C 785.7230769230769,329.4658848912145 799.5076923076923,361.4094168296183 827.0769230769231,371.8427428771928 C 854.6461538461539,382.2760689247673 882.2153846153847,376.1893542991454 896,377.2760071546336" fill="none" stroke-linecap="round" stroke-width="1.5" style="transition: all 0.4s cubic-bezier(0.16, 1, 0.3, 1) 0s;" stroke="url(#linear-gradient-r8)"></path></g></svg>