<svg viewBox="0 0 500 1000" height="1000" width="500" xmlns="http://www.w3.org/2000/svg" version="1.1"><g transform-origin="center" transform="scale(1, 1) rotate(0)"><rect x="0" y="0" width="500" height="1000" fill="#a9a9a900"></rect><linearGradient id="linear-gradient-r0"><stop offset="0%" stop-color="#ff9100ff" stop-opacity="100%"></stop><stop offset="100%" stop-color="#ff0087fc" stop-opacity="100%"></stop></linearGradient><filter id="shadow-r0" x="0" width="100%" y="-20%" height="150%"><feDropShadow dx="-7" dy="-1" stdDeviation="10" flood-color="#00000061"></feDropShadow></filter><path d="M0 0 0,474.35680516995484 C 25,473.94542979324854 75,466.7446275384475 125,472.2999282864232 C 175,477.8552290343989 200,503.02656384681654 250,502.1333089098334 C 300,501.2400539728502 325,479.5050814555337 375,467.8336536015073 C 425,456.16222574748093 475,448.58766643206275 500,443.7761696397016 L500 1000 L0 1000Z" fill="none" stroke-linecap="round" filter="url(#shadow-r0)" stroke-width="1" style="transition: all 0.4s cubic-bezier(0.16, 1, 0.3, 1) 0s; fill: url(&quot;#linear-gradient-r0&quot;);"></path><path d="M0 0 0,631.1644496191293 C 24.999999999999996,639.1380986221135 75,672.2264080498368 125,671.0326946340501 C 175,669.8389812182635 200,640.7931543087586 250,625.1958825401962 C 300,609.5986107716337 325,619.6266859756782 375,593.0463357912377 C 425,566.4659856067971 475,512.444572452642 500,492.2941316179931 L500 1000 L0 1000Z" fill="none" stroke-linecap="round" filter="url(#shadow-r0)" stroke-width="1" style="transition: all 0.4s cubic-bezier(0.16, 1, 0.3, 1) 0s; fill: url(&quot;#linear-gradient-r0&quot;);"></path><path d="M0 0 0,839.9320803582668 C 25.000000000000004,828.4572865823905 75,802.0812271619836 125,782.558111478885 C 175,763.0349957957865 200,775.5871443505089 250,742.3165019427737 C 300,709.0458595350385 325,634.3326501617829 375,616.204899440209 C 425,598.0771487186352 475,644.5831785559654 500,651.6777483349045 L500 1000 L0 1000Z" fill="none" stroke-linecap="round" filter="url(#shadow-r0)" stroke-width="1" style="transition: all 0.4s cubic-bezier(0.16, 1, 0.3, 1) 0s; fill: url(&quot;#linear-gradient-r0&quot;);"></path></g></svg>