<svg viewBox="0 0 1920 1080" height="1080" width="1920" xmlns="http://www.w3.org/2000/svg" version="1.1"><g transform-origin="center" transform="scale(1, 1) rotate(0)"><rect x="0" y="0" width="1920" height="1080" fill="#ffffff00"></rect><linearGradient id="linear-gradient-rd"><stop offset="0%" stop-color="#ff7000ff" stop-opacity="100%"></stop><stop offset="100%" stop-color="#ff0087ff" stop-opacity="100%"></stop></linearGradient><filter id="shadow-rd" x="0" width="100%" y="-20%" height="150%"><feDropShadow dx="5" dy="-6" stdDeviation="19" flood-color="#00000066"></feDropShadow></filter><path d="M0 0 0,711.4278486214579 C 22.69090909090909,711.1023085869894 129.16363636363636,704.5275325146183 174.54545454545453,708.9236945101619 C 219.9272727272727,713.3198565057055 303.7090909090909,745.9513525905401 349.09090909090907,745.2444793564082 C 394.47272727272724,744.5376061222763 478.25454545454545,712.7223394741014 523.6363636363636,703.4862080937625 C 569.0181818181818,694.2500767134235 652.8,689.9372218504609 698.1818181818181,674.1973148922623 C 743.5636363636363,658.4574079340638 827.3454545454545,590.9860031404585 872.7272727272726,582.4100007230044 C 918.1090909090908,573.8339983055503 1001.8909090909091,603.8867109911979 1047.2727272727273,608.2280655272306 C 1092.6545454545455,612.5694200632632 1176.4363636363637,607.7804439654798 1221.8181818181818,615.8050356155634 C 1267.1999999999998,623.829627265647 1350.9818181818182,662.6933803919658 1396.3636363636363,669.9556936047971 C 1441.7454545454543,677.2180068176285 1525.5272727272727,676.6328340491966 1570.9090909090908,671.6689834065736 C 1616.2909090909088,666.7051327639506 1700.0727272727272,630.5016605707929 1745.4545454545453,631.7722271230817 C 1790.8363636363633,633.0427936753706 1897.3090909090906,674.985427401191 1919.9999999999998,681.4425722703338 L1920 1080 L0 1080Z" fill="none" stroke-linecap="round" stroke-width="1.5" style="transition: all 0.4s cubic-bezier(0.16, 1, 0.3, 1) 0s; fill: url(&quot;#linear-gradient-rd&quot;);" filter="url(#shadow-rd)"></path><path d="M0 0 0,776.6822316198547 C 22.69090909090909,781.8552313349336 129.16363636363633,817.2489729098271 174.54545454545453,816.4745371204615 C 219.92727272727274,815.7001013310959 303.7090909090909,780.8439489817813 349.09090909090907,770.7250332401196 C 394.47272727272724,760.6061174984579 478.25454545454545,755.88104233796 523.6363636363636,738.6367237230639 C 569.0181818181818,721.3924051081678 652.8,647.4721205254485 698.1818181818181,638.0764285101493 C 743.5636363636363,628.6807364948501 827.3454545454545,661.6058709425669 872.7272727272726,666.3621697592239 C 918.1090909090908,671.1184685758809 1001.8909090909091,665.8717647746056 1047.2727272727273,674.6633424844345 C 1092.6545454545455,683.4549201942633 1176.4363636363637,726.0332494855826 1221.8181818181818,733.9896906040609 C 1267.1999999999998,741.9461317225392 1350.9818181818182,741.3050284625009 1396.3636363636363,735.8667357034982 C 1441.7454545454543,730.4284429444955 1525.5272727272727,690.7646627758866 1570.9090909090908,692.1566693809629 C 1616.2909090909088,693.5486759860391 1700.0727272727272,742.5103465796778 1745.4545454545453,746.5744788194696 C 1790.8363636363633,750.6386110592614 1897.3090909090906,726.4294080588827 1919.9999999999998,723.4192250716686 L1920 1080 L0 1080Z" fill="none" stroke-linecap="round" stroke-width="1.5" style="transition: all 0.4s cubic-bezier(0.16, 1, 0.3, 1) 0s; fill: url(&quot;#linear-gradient-rd&quot;);" filter="url(#shadow-rd)"></path><path d="M0 0 0,887.7045948845148 C 22.69090909090909,881.2382991397699 129.16363636363636,848.9655584894613 174.54545454545453,837.9638583864769 C 219.9272727272727,826.9621582834925 303.7090909090909,821.8248628254594 349.09090909090907,803.0761325538656 C 394.47272727272724,784.3274022822718 478.25454545454545,703.9582379104386 523.6363636363636,693.7428562972943 C 569.0181818181818,683.5274746841501 652.8,719.3250308939357 698.1818181818181,724.4962739912172 C 743.5636363636363,729.6675170884987 827.3454545454545,723.9630855837315 872.7272727272726,733.5216493533055 C 918.1090909090908,743.0802131228795 1001.8909090909091,789.3731185791994 1047.2727272727273,798.0236876033247 C 1092.6545454545455,806.67425662745 1176.4363636363637,805.9772228758053 1221.8181818181818,800.0644880004228 C 1267.1999999999998,794.1517531250403 1350.9818181818182,751.0276649809804 1396.3636363636363,752.5411116388441 C 1441.7454545454543,754.0545582967078 1525.5272727272727,807.2876941547861 1570.9090909090908,811.7063853686054 C 1616.2909090909088,816.1250765824248 1700.0727272727272,795.6136323952109 1745.4545454545453,786.5310440528393 C 1790.8363636363633,777.4484557104678 1897.3090909090906,747.6501151678383 1919.9999999999998,741.8403211965164 L1920 1080 L0 1080Z" fill="none" stroke-linecap="round" stroke-width="1.5" style="transition: all 0.4s cubic-bezier(0.16, 1, 0.3, 1) 0s; fill: url(&quot;#linear-gradient-rd&quot;);" filter="url(#shadow-rd)"></path></g></svg>