<svg viewBox="0 0 400 1000" height="1000" width="400" xmlns="http://www.w3.org/2000/svg" version="1.1"><g transform-origin="center" transform="scale(1, 1) rotate(0)"><rect x="0" y="0" width="1000" height="500" fill="#00243800"></rect><linearGradient id="linear-gradient-r0"><stop offset="0%" stop-color="#ff8700ff" stop-opacity="100%"></stop><stop offset="100%" stop-color="#ff004fff" stop-opacity="100%"></stop></linearGradient><filter id="shadow-r0" x="0" width="100%" y="-20%" height="150%"><feDropShadow dx="0" dy="0" stdDeviation="10" flood-color="#00000061"></feDropShadow></filter><path d="M0 0 0,509.1304937878158 C 8.88888888888889,508.90143249851343 26.666666666666664,504.89189487936284 44.44444444444444,507.98518734130386 C 62.22222222222222,511.0784798032449 71.11111111111111,525.094336687432 88.88888888888889,524.5969560975209 C 106.66666666666666,524.0995755076098 115.55555555555554,511.9971476286495 133.33333333333331,505.4982843917484 C 151.1111111111111,498.99942115484737 159.99999999999997,503.1777858231993 177.77777777777777,492.1026399130157 C 195.55555555555554,481.0274940028321 204.44444444444446,456.1569283826587 222.22222222222223,450.12255484083045 C 240,444.0881812990022 248.88888888888886,458.8760441764413 266.66666666666663,461.9307722038745 C 284.4444444444444,464.98550023130764 293.3333333333333,459.74981322806946 311.1111111111111,465.39619497799623 C 328.88888888888886,471.042576727923 337.77777777777777,485.0526648211914 355.55555555555554,490.16268095350824 C 373.3333333333333,495.2726970858251 391.1111111111111,490.7895567023661 400,490.94627563958056 L400 1000 L0 1000Z" fill="none" stroke-linecap="round" filter="url(#shadow-r0)" stroke-width="1" style="transition: all 0.4s cubic-bezier(0.16, 1, 0.3, 1) 0s; fill: url(&quot;#linear-gradient-r0&quot;);"></path><path d="M0 0 0,611.6556337374883 C 8.888888888888891,615.6560188665364 26.666666666666664,632.2564462154793 44.44444444444444,631.6575593827292 C 62.22222222222222,631.0586725499792 71.11111111111111,616.4863614304147 88.88888888888889,608.6611995737379 C 106.66666666666666,600.8360377170611 115.55555555555554,605.8671298687502 133.33333333333331,592.5317500993455 C 151.1111111111111,579.1963703299407 160,549.2501790729972 177.77777777777777,541.9843007267142 C 195.55555555555554,534.7184223804312 204.44444444444446,552.5242164573477 222.22222222222223,556.2023583679305 C 240,559.8805002785133 248.88888888888886,553.5763057235938 266.66666666666663,560.3750102796281 C 284.4444444444444,567.1737148356624 293.3333333333333,584.0430045806182 311.1111111111111,590.1958811481018 C 328.88888888888886,596.3487577155853 337.77777777777777,595.3449347135611 355.55555555555554,591.139393117046 C 373.3333333333333,586.9338515205309 391.1111111111111,573.5624171558302 400,569.1681731655262 L400 1000 L0 1000Z" fill="none" stroke-linecap="round" filter="url(#shadow-r0)" stroke-width="1" style="transition: all 0.4s cubic-bezier(0.16, 1, 0.3, 1) 0s; fill: url(&quot;#linear-gradient-r0&quot;);"></path><path d="M0 0 0,738.7181626679376 C 8.88888888888889,733.3393530854955 26.666666666666668,720.9755752321798 44.44444444444444,711.8241147557274 C 62.22222222222222,702.6726542792749 71.11111111111111,708.556473914301 88.88888888888889,692.9608602856752 C 106.66666666666666,677.3652466570493 115.55555555555554,642.3434297633357 133.33333333333331,633.846046612598 C 151.1111111111111,625.3486634618603 160,646.1723887382541 177.77777777777777,650.4739445319865 C 195.55555555555554,654.7755003257189 204.44444444444446,647.4027982191183 222.22222222222223,655.35382558126 C 240,663.3048529434018 248.88888888888886,683.033344340045 266.66666666666663,690.2290813426953 C 284.4444444444444,697.4248183453456 293.3333333333333,696.2508558514528 311.1111111111111,691.3325105945114 C 328.88888888888886,686.41416533757 337.77777777777777,664.3784362415317 355.55555555555554,665.6373550579883 C 373.3333333333333,666.8962738744449 391.1111111111111,691.2291547530331 400,697.6271046767943 L400 1000 L0 1000Z" fill="none" stroke-linecap="round" filter="url(#shadow-r0)" stroke-width="1" style="transition: all 0.4s cubic-bezier(0.16, 1, 0.3, 1) 0s; fill: url(&quot;#linear-gradient-r0&quot;);"></path></g></svg>