<?xml version="1.0" standalone="no"?>
<!DOCTYPE svg PUBLIC "-//W3C//DTD SVG 20010904//EN"
 "http://www.w3.org/TR/2001/REC-SVG-20010904/DTD/svg10.dtd">
<svg version="1.0" xmlns="http://www.w3.org/2000/svg"
 width="353.000000pt" height="353.000000pt" viewBox="0 0 353.000000 353.000000"
 preserveAspectRatio="xMidYMid meet">
<metadata>
Created by potrace 1.14, written by Peter Selinger 2001-2017
</metadata>
<g transform="translate(0.000000,353.000000) scale(0.100000,-0.100000)"
fill="#000000" stroke="none">
<path d="M1827 3513 c-15 -2 -25 -8 -23 -12 3 -4 -9 -5 -26 -3 -21 3 -29 1
-24 -7 4 -7 2 -9 -8 -5 -15 6 -144 -53 -211 -97 -22 -14 -69 -34 -104 -43 -81
-22 -163 -65 -219 -114 -34 -30 -57 -40 -109 -50 -36 -7 -73 -18 -82 -25 -17
-12 -21 -30 -10 -41 8 -8 -22 -94 -49 -140 -44 -74 -115 -271 -132 -364 -13
-72 -16 -184 -6 -200 4 -6 3 -12 -1 -12 -5 0 -8 -22 -8 -50 0 -27 2 -50 5 -50
5 0 4 -40 -2 -272 -1 -73 -8 -92 -23 -68 -14 22 -55 10 -76 -22 -18 -29 -20
-44 -16 -123 4 -77 31 -235 53 -312 6 -22 4 -23 -71 -23 -72 0 -78 -2 -106
-30 l-30 -30 5 -132 c4 -73 8 -176 11 -228 5 -102 10 -200 20 -405 4 -71 8
-146 10 -166 2 -22 -3 -45 -13 -61 -110 -163 -136 -206 -158 -265 -14 -37 -28
-81 -30 -97 -2 -15 -6 -37 -9 -47 -6 -19 24 -19 1379 -19 l1386 0 0 34 c0 62
-43 163 -126 298 -51 83 -53 89 -49 145 2 32 6 117 9 188 4 72 9 166 12 210 3
44 7 116 9 160 1 44 6 148 10 230 l7 151 -27 32 c-26 31 -30 32 -101 32 -41 0
-74 3 -74 6 0 3 7 32 15 63 30 117 50 266 44 319 -12 90 -52 125 -104 88 -20
-14 -20 -11 -18 178 2 105 3 216 3 246 1 57 -7 164 -16 213 -9 56 -67 204 -85
217 -3 3 -9 34 -12 70 -3 36 -8 75 -11 87 -2 12 2 27 10 34 12 10 13 9 8 -7
-5 -18 -5 -18 10 0 12 15 16 16 16 5 0 -12 2 -12 9 0 5 7 14 10 20 7 6 -4 11
-2 11 4 0 6 5 8 10 5 6 -3 10 0 10 9 0 23 -57 88 -155 176 -79 71 -255 133
-440 156 -33 4 -64 8 -70 9 -5 1 -17 3 -25 4 -13 1 -13 3 -1 10 8 5 16 19 18
31 2 12 10 28 18 36 23 23 18 43 -12 55 -30 12 -201 20 -246 12z"/>
</g>
</svg>
